<svg xmlns="http://www.w3.org/2000/svg" xmlns:xlink="http://www.w3.org/1999/xlink" version="1.1" id="Layer_1" x="0px" y="0px" width="99.908px" height="64.088px" viewBox="4.9954 -6.4088 99.908 86.5188" enable-background="new 0 0 99.908 64.088" xml:space="preserve">
<path fill="#010101" d="M56.798,0.627c3.242-0.526,6.541-0.762,9.821-0.549c4.626,0.107,9.104,1.625,13.205,3.686  c1.977,1.024,3.826,2.272,5.613,3.593c3.375,2.628,6.272,5.916,8.244,9.723c1.967,3.691,2.855,7.94,2.572,12.108  c-0.115,1.826-0.465,3.65-0.299,5.486c0.113,0.988,0.387,1.959,0.814,2.857c0.453,0.985,1.088,1.875,1.598,2.834  c0.211,0.387,0.326,0.826,0.604,1.174c0.334,0.444,0.747,0.854,0.922,1.394c0.098,0.397-0.271,0.669-0.492,0.944  c-1.277,1.25-2.998,1.879-4.441,2.898c0.291,1.822,0.532,3.655,0.857,5.473c0.502,2.377,0.692,4.826,1.469,7.141  c0.455,1.357,0.225,3.018-0.793,4.066c-0.566,0.533-1.412,0.35-2.117,0.418c-1.318,0.11-2.65,0.062-3.967,0.215h-2.895  c-1.064-0.021-2.125-0.131-3.193-0.108c-0.59,0.024-1.293-0.094-1.648-0.622c-0.329-0.511-0.168-1.154-0.047-1.705  c-0.682,0.146-1.352,0.33-2.023,0.5c-0.541,0.139-1.067-0.1-1.562-0.291c-0.591-0.24-1.279-0.539-1.498-1.191  c-0.227-0.993,0.298-1.918,0.704-2.785c0.346-0.766,0.864-1.538,0.682-2.422c-0.062-0.594-0.714-0.784-1.204-0.901  c-1.793-0.248-3.529,0.403-5.195,0.981c-1.566,0.545-3.157,1.103-4.824,1.238c-1.196,0.074-2.393-0.104-3.588-0.104  c-2.889-0.182-5.781-0.412-8.637-0.911c-2.678-0.578-5.386-1.185-7.845-2.433c-0.4,1.234,0.043,2.498,0.498,3.648  c0.28,0.711,0.623,1.42,0.683,2.195c0.046,0.982,0.243,2.018-0.158,2.959c-0.107,0.298-0.417,0.42-0.696,0.5  c-2.466,0.816-5.058,1.244-7.653,1.332c-1.315-0.008-2.632,0.064-3.939-0.092c-0.424-0.047-0.875,0.013-1.273-0.168  c-0.538-0.514-0.785-1.244-1.115-1.895c-0.163-0.3-0.489-0.559-0.85-0.468c-0.502,0.139-1.006,0.369-1.539,0.26  c-0.909-0.155-1.891-0.094-2.72-0.555c-0.541-0.336-0.527-1.099-0.393-1.646c0.54-1.488,1.747-2.707,1.959-4.315  c0.011-1.222-0.526-2.349-0.87-3.496c-0.335-1.071-0.901-2.226-0.477-3.356c0.465-0.865,1.452-1.326,1.864-2.23  c0.135-0.438-0.15-0.829-0.32-1.208c-0.56-1.146-0.873-2.398-1.477-3.524c-0.283-0.533-0.55-1.105-1.043-1.48  c-1.702-1.336-3.647-2.312-5.593-3.234c-0.855-0.414-1.728-0.793-2.613-1.141c-1.49-0.584-2.974-1.19-4.506-1.662  c-0.777-0.236-1.572-0.625-2.408-0.439c-0.962,0.203-1.863,0.613-2.788,0.936C9.515,34.5,8.783,34.78,8.035,34.636  c-1.383-0.288-2.749-0.765-3.922-1.565c-1.604-1.127-2.637-2.901-3.261-4.728c-0.44-1.387-0.655-2.83-0.852-4.267v-0.007  c0.069-1.92,1.232-3.596,2.591-4.869c1.572-1.482,3.506-2.511,5.454-3.411c1.856-0.826,3.848-1.312,5.857-1.565  c2.046-0.184,4.189,0.009,6.039,0.959c1.409,0.699,2.415,1.997,3.124,3.367c0.72,1.45,0.979,3.066,1.356,4.624  c0.388,1.335,0.639,2.807,1.631,3.854c0.519,0.569,1.341,0.593,2.053,0.679c0.823,0.017,1.707,0.107,2.465-0.282  c0.347-0.213,0.285-0.668,0.35-1.017c0.277-3.408,1.178-6.764,2.662-9.846c1.106-2.216,2.42-4.351,4.111-6.172  c1.118-1.236,2.375-2.344,3.695-3.359c2.921-2.226,6.277-3.83,9.756-4.971C52.997,1.455,54.876,0.93,56.798,0.627L56.798,0.627z"/>
<text x="0.0" y="75.3034" font-size="3.2044" font-weight="bold" font-family="Helvetica Neue, Helvetica, Arial-Unicode, Arial, Sans-serif" fill="#000000">Created by Unrecognized MJ</text><text x="0.0" y="78.5078" font-size="3.2044" font-weight="bold" font-family="Helvetica Neue, Helvetica, Arial-Unicode, Arial, Sans-serif" fill="#000000">from the Noun Project</text></svg>